<svg xmlns="http://www.w3.org/2000/svg" width="48.233" height="39.413"><g fill="none" stroke="#ff8146" stroke-linecap="round" stroke-linejoin="round" stroke-width="2"><path d="M30.864 3.992v4.15a.71.71 0 0 0 .71.71h.285a.71.71 0 0 0 .7-.618l.011-.088a2.486 2.486 0 0 1 2.465-2.164h0A2.486 2.486 0 0 1 37.5 8.146l.011.088a.71.71 0 0 0 .7.618h0a.71.71 0 0 0 .71-.71v-4.15a.549.549 0 0 0-.549-.548h-6.969a.549.549 0 0 0-.539.548Z"/><path d="M30.864 5.105h-6.1a1.922 1.922 0 0 0-1.922 1.922v29.466a1.922 1.922 0 0 0 1.922 1.922h20.545a1.922 1.922 0 0 0 1.922-1.922V7.027a1.922 1.922 0 0 0-1.922-1.922h-6.382"/><path d="M25.692 7.951v27.62h13.57l5.125-5.124V7.951"/><path d="M32.856 19.708 30.598 22.1l-1.092-1.092M32.856 14.252l-2.258 2.392-1.092-1.092M34.232 15.448h7.793M34.232 22.259h7.793M32.856 25.671l-2.258 2.392-1.092-1.092M34.232 28.221h7.793M20.446 20.652h-4.6a3.177 3.177 0 0 1-2.146-.832l-1.475-1.35M6.215 24.055l4.183.576a2.144 2.144 0 0 1 1.835 2.122v1.059H6.214M2.971 21.501v9.977M2.971 21.501l-1.662-1.8a.97.97 0 0 1-.31-.711v-1.972a.97.97 0 0 1 .97-.97H5.76l3.281-6.292a3.441 3.441 0 0 1 2.743-1.364h8.923M9.062 31.475v.371a3.046 3.046 0 0 1-3.046 3.046h0a3.045 3.045 0 0 1-3.045-3.046v-.371M20.445 31.478H6.214M17.857 27.812h2.398M9.224 16.048h11.399M32.646 1h4.502"/></g></svg>