<svg xmlns="http://www.w3.org/2000/svg" width="43.074" height="44.896"><g fill="none" stroke="#ff8146" stroke-linecap="round" stroke-linejoin="round" stroke-width="2"><path d="M18.991 34.906v-15.55h0v-4.608a5.179 5.179 0 0 1-.243-8.885V8.33a1.962 1.962 0 0 0 .981 1.7h0a3.61 3.61 0 0 0 3.61 0h0a1.963 1.963 0 0 0 .981-1.7V5.864a5.179 5.179 0 0 1-.243 8.885v20.158"/><path d="M21.703 43.896h3.6l.337-1.167a9.593 9.593 0 0 1 4.494-5.628l.073-.042a9.544 9.544 0 0 1 7.094-1.063l1.18.292 3.6-6.232-.843-.876a9.547 9.547 0 0 1-2.627-6.675v-.085a9.593 9.593 0 0 1 2.627-6.706l.842-.875-3.6-6.231-1.181.292a9.578 9.578 0 0 1-7.111-1.072l-.032-.019-.032-.019a9.576 9.576 0 0 1-4.484-5.622L25.303.999h-7.522l-.337 1.169A9.576 9.576 0 0 1 12.96 7.79l-.032.019-.032.019A9.577 9.577 0 0 1 5.785 8.9l-1.181-.292-3.6 6.231.843.875a9.593 9.593 0 0 1 2.627 6.706v.085a9.546 9.546 0 0 1-2.627 6.675l-.843.876 3.6 6.232 1.18-.292a9.544 9.544 0 0 1 7.094 1.063l.073.042a9.592 9.592 0 0 1 4.494 5.628l.337 1.167h3.924Z"/><path d="M28.426 11.487a12.945 12.945 0 1 1-13.78 0"/></g></svg>