<svg xmlns="http://www.w3.org/2000/svg" width="50.5" height="47.738"><path d="m34.732 33.318 2.567 2.289 3.7-4.526" fill="none" stroke="#ff8146" stroke-linecap="round" stroke-linejoin="round" stroke-width="2"/><path d="M49.316 23.279a15.562 15.562 0 0 1-11.808-3.329A15.563 15.563 0 0 1 25.7 23.279s-2.274 19.3 11.808 23.459c14.082-4.162 11.808-23.459 11.808-23.459ZM29.482 11.379l-1.519 1.39a3.269 3.269 0 0 1-2.21.857l-4.066-.006-5.4.006a3.269 3.269 0 0 1-2.21-.857l-1.519-1.39M29.088 20.991v-1.09a2.208 2.208 0 0 1 1.889-2.184l4.307-.593M6.368 17.124l4.307.593a2.207 2.207 0 0 1 1.889 2.184v1.09h-6.2M3.029 14.495v10.271" fill="none" stroke="#ff8146" stroke-linecap="round" stroke-linejoin="round" stroke-width="2"/><path d="m3.029 14.495-1.71-1.858A1 1 0 0 1 1 11.906V9.88a1 1 0 0 1 1-1h3.9l3.378-6.477a3.544 3.544 0 0 1 2.824-1.4h17.445a3.544 3.544 0 0 1 2.824 1.4l3.378 6.477h3.9a1 1 0 0 1 1 1v2.026a1 1 0 0 1-.319.731l-1.71 1.858v3.483M9.3 24.768v.382a3.135 3.135 0 0 1-3.135 3.135h0A3.135 3.135 0 0 1 3.03 25.15v-.382M23.292 24.769H6.368M18.355 20.992h4.937" fill="none" stroke="#ff8146" stroke-linecap="round" stroke-linejoin="round" stroke-width="2"/></svg>