<svg xmlns="http://www.w3.org/2000/svg" width="275.618" height="59.818"><g fill="#272b76"><path d="M74.624 19.236h5.245a4.526 4.526 0 0 1 5.245 5.181V25.8q0 3.508-2.317 4.441v.064a2.764 2.764 0 0 1 1.818 1.577 7.935 7.935 0 0 1 .529 3.186v3.958a15.116 15.116 0 0 0 .065 1.56 3.9 3.9 0 0 0 .322 1.175h-3.6a5.152 5.152 0 0 1-.257-1.03 15.343 15.343 0 0 1-.065-1.738v-4.119a3.5 3.5 0 0 0-.5-2.156 2.11 2.11 0 0 0-1.721-.612h-1.224v9.653h-3.54Zm4.827 9.653a2.122 2.122 0 0 0 1.593-.547 2.582 2.582 0 0 0 .531-1.834v-1.74a2.857 2.857 0 0 0-.434-1.769 1.642 1.642 0 0 0-1.368-.547h-1.609v6.435ZM88.236 19.236h9.653v3.218h-6.114v5.953h4.859v3.218h-4.859v6.919h6.114v3.217h-9.653ZM100.56 19.236h5.048l2.253 16.121h.065l2.253-16.121h5.052v22.525h-3.346V24.706h-.064l-2.575 17.055h-2.958l-2.575-17.055h-.064v17.055h-3.089ZM121.25 19.236h4.795l3.668 22.525h-3.54l-.644-4.473v.065h-4.022l-.643 4.408h-3.282Zm3.862 15.06-1.577-11.134h-.065l-1.544 11.134ZM132.062 19.236h5.245a4.525 4.525 0 0 1 5.245 5.181V25.8q0 3.508-2.317 4.441v.064a2.765 2.765 0 0 1 1.818 1.577 7.944 7.944 0 0 1 .531 3.185v3.958a14.955 14.955 0 0 0 .065 1.56 3.876 3.876 0 0 0 .321 1.175h-3.6a5.156 5.156 0 0 1-.258-1.03 15.511 15.511 0 0 1-.064-1.738v-4.119a3.5 3.5 0 0 0-.5-2.156 2.11 2.11 0 0 0-1.721-.612h-1.223v9.653h-3.54Zm4.827 9.653a2.122 2.122 0 0 0 1.593-.547 2.584 2.584 0 0 0 .531-1.834v-1.74a2.858 2.858 0 0 0-.434-1.769 1.641 1.641 0 0 0-1.368-.547h-1.609v6.435ZM145.674 19.236h3.54v9.493l4.5-9.493h3.54l-4.215 8.27 4.28 14.255h-3.7l-2.993-10.04-1.416 2.864v7.176h-3.54ZM162.374 19.236h4.795l3.668 22.525h-3.54l-.644-4.473v.065h-4.023l-.643 4.408h-3.282Zm3.862 15.06-1.577-11.134h-.065l-1.545 11.134ZM173.186 19.236h5.337a4.525 4.525 0 0 1 5.245 5.181v.9a6.189 6.189 0 0 1-.562 2.832 3.3 3.3 0 0 1-1.722 1.577v.064q2.638.9 2.639 4.7v1.931a4.8 4.8 0 0 1-5.374 5.341h-5.567Zm4.924 9.171a2.123 2.123 0 0 0 1.593-.547 2.585 2.585 0 0 0 .531-1.834v-1.258a2.857 2.857 0 0 0-.434-1.769 1.641 1.641 0 0 0-1.368-.547h-1.709v5.953Zm.644 10.137a1.773 1.773 0 0 0 1.383-.5 2.573 2.573 0 0 0 .45-1.721V34.36a3.257 3.257 0 0 0-.531-2.14 2.248 2.248 0 0 0-1.753-.6h-1.58v6.919ZM186.83 19.236h3.54v19.308h5.824v3.217h-9.364ZM198.542 19.236h9.654v3.218h-6.114v5.953h4.859v3.218h-4.859v6.919h6.114v3.217h-9.654Z"/></g><path d="M214.8 19.011h6.967v22.975H214.8Z" fill="#ff6f00"/><g fill="#272b76"><path d="M237.284 24.674v2.027h-2.381v-2.155c0-2.027-.8-3.25-2.639-3.25-1.8 0-2.638 1.223-2.638 3.25v11.9c0 2.028.836 3.25 2.638 3.25 1.834 0 2.639-1.222 2.639-3.25v-2.928h2.381v2.8c0 3.411-1.609 5.664-5.083 5.664-3.444 0-5.052-2.253-5.052-5.664V24.674c0-3.411 1.608-5.663 5.052-5.663 3.483 0 5.083 2.252 5.083 5.663ZM242.121 37.236l-.865 4.538h-2.317l4.293-22.528h3.636l4.33 22.521h-2.51l-.873-4.537Zm.32-2.156h5.02l-2.553-13ZM258.163 19.235c3.54 0 5.022 1.8 5.024 5.144v1.834c0 2.478-.865 4.022-2.8 4.635 2.06.61 2.833 2.282 2.835 4.7v3.507a5.64 5.64 0 0 0 .453 2.7h-2.542a5.9 5.9 0 0 1-.42-2.735v-3.539c0-2.542-1.193-3.345-3.285-3.344h-1.77l.008 9.621h-2.51l-.018-22.524Zm-.634 10.619c1.995 0 3.185-.646 3.183-3.092v-2.156c0-2.027-.742-3.089-2.609-3.087h-2.446l.007 8.335ZM275.577 24.627v.612h-2.381v-.741c0-2.027-.775-3.217-2.577-3.216s-2.573 1.193-2.572 3.188c0 5.052 7.567 5.529 7.572 11.868 0 3.41-1.636 5.632-5.079 5.635s-5.054-2.216-5.057-5.626V35.06h2.349v1.416c0 2.027.839 3.217 2.641 3.216s2.637-1.193 2.636-3.22c0-5.02-7.534-5.5-7.539-11.835 0-3.475 1.6-5.633 4.983-5.635 3.41-.005 5.021 2.215 5.024 5.625Z"/></g><path d="m1.111 30.737 28.1 29.08h-6.787A22.651 22.651 0 0 1 3.321 49.485c-2.9-4.537-4.547-10.701-2.21-18.748ZM47.719 3.63a15.016 15.016 0 0 0-9.8-3.634H1.111l12.636 12.389h21.214a6.784 6.784 0 0 1 4.122 1.35c2.408 1.851 5.45 5.615 1.6 11.356a6.478 6.478 0 0 1-5.4 2.69h-5.836L45.72 43.737C63.227 22.39 54.467 9.442 47.719 3.63Z" fill="#272b76"/><path d="m3.351-.001 57.945 59.818H35.682L1.111 24.429V-.001Z" fill="#ff6f00"/></svg>