<svg xmlns="http://www.w3.org/2000/svg" width="48.233" height="39.413" viewBox="0 0 48.233 39.413"><g transform="translate(1 1)"><g transform="translate(21.845 2.444)"><path d="M3058.506,895.27v4.15a.71.71,0,0,0,.71.71h.285a.71.71,0,0,0,.7-.618l.011-.088a2.486,2.486,0,0,1,2.465-2.164h0a2.486,2.486,0,0,1,2.465,2.164l.011.088a.71.71,0,0,0,.7.618h0a.71.71,0,0,0,.71-.71v-4.15a.549.549,0,0,0-.549-.548h-6.969A.549.549,0,0,0,3058.506,895.27Z" transform="translate(-3050.487 -894.722)" fill="none" stroke="#ff8146" stroke-linecap="round" stroke-linejoin="round" stroke-width="2"/><path d="M3024.083,903.512h-6.1a1.922,1.922,0,0,0-1.922,1.922V934.9a1.922,1.922,0,0,0,1.922,1.922h20.545a1.922,1.922,0,0,0,1.922-1.922V905.434a1.922,1.922,0,0,0-1.922-1.922h-6.382" transform="translate(-3016.064 -901.851)" fill="none" stroke="#ff8146" stroke-linecap="round" stroke-linejoin="round" stroke-width="2"/><path d="M3031.132,918.58V946.2h13.57l5.125-5.124V918.58" transform="translate(-3028.285 -914.073)" fill="none" stroke="#ff8146" stroke-linecap="round" stroke-linejoin="round" stroke-width="2"/><path d="M3054.671,980.808l-2.258,2.392-1.092-1.092" transform="translate(-3044.66 -964.544)" fill="none" stroke="#ff8146" stroke-linecap="round" stroke-linejoin="round" stroke-width="2"/><path d="M3054.671,951.929l-2.258,2.392-1.092-1.092" transform="translate(-3044.66 -941.121)" fill="none" stroke="#ff8146" stroke-linecap="round" stroke-linejoin="round" stroke-width="2"/><line x2="7.793" transform="translate(11.387 12.004)" fill="none" stroke="#ff8146" stroke-linecap="round" stroke-linejoin="round" stroke-width="2"/><line x2="7.793" transform="translate(11.387 18.815)" fill="none" stroke="#ff8146" stroke-linecap="round" stroke-linejoin="round" stroke-width="2"/><path d="M3054.671,1012.369l-2.258,2.392-1.092-1.092" transform="translate(-3044.66 -990.142)" fill="none" stroke="#ff8146" stroke-linecap="round" stroke-linejoin="round" stroke-width="2"/><line x2="7.793" transform="translate(11.387 24.777)" fill="none" stroke="#ff8146" stroke-linecap="round" stroke-linejoin="round" stroke-width="2"/></g><path d="M2968.075,976.457l-4.6,0a3.177,3.177,0,0,1-2.146-.832l-1.475-1.35" transform="translate(-2948.629 -956.805)" fill="none" stroke="#ff8146" stroke-linecap="round" stroke-linejoin="round" stroke-width="2"/><path d="M2928.039,1003.816l4.183.576a2.144,2.144,0,0,1,1.835,2.122v1.059h-6.019" transform="translate(-2922.824 -980.761)" fill="none" stroke="#ff8146" stroke-linecap="round" stroke-linejoin="round" stroke-width="2"/><line y2="9.977" transform="translate(1.971 20.501)" fill="none" stroke="#ff8146" stroke-linecap="round" stroke-linejoin="round" stroke-width="2"/><path d="M2902.41,934.023l-1.662-1.8a.97.97,0,0,1-.31-.711V929.54a.97.97,0,0,1,.97-.97h3.791l3.281-6.292a3.441,3.441,0,0,1,2.743-1.364h8.923" transform="translate(-2900.439 -913.522)" fill="none" stroke="#ff8146" stroke-linecap="round" stroke-linejoin="round" stroke-width="2"/><path d="M2916.962,1043.1v.371a3.046,3.046,0,0,1-3.046,3.046h0a3.045,3.045,0,0,1-3.045-3.046v-.371" transform="translate(-2908.9 -1012.625)" fill="none" stroke="#ff8146" stroke-linecap="round" stroke-linejoin="round" stroke-width="2"/><line x1="14.231" transform="translate(5.214 30.478)" fill="none" stroke="#ff8146" stroke-linecap="round" stroke-linejoin="round" stroke-width="2"/><line x2="2.398" transform="translate(16.857 26.812)" fill="none" stroke="#ff8146" stroke-linecap="round" stroke-linejoin="round" stroke-width="2"/><line x2="11.399" transform="translate(8.224 15.048)" fill="none" stroke="#ff8146" stroke-linecap="round" stroke-linejoin="round" stroke-width="2"/><line x2="4.502" transform="translate(31.646)" fill="none" stroke="#ff8146" stroke-linecap="round" stroke-linejoin="round" stroke-width="2"/></g></svg>