<svg xmlns="http://www.w3.org/2000/svg" width="50.5" height="47.738" viewBox="0 0 50.5 47.738"><g transform="translate(1 1)"><g transform="translate(33.732 30.081)"><path d="M697.752,1708.465l2.567,2.289,3.7-4.526" transform="translate(-697.752 -1706.228)" fill="none" stroke="#ff8146" stroke-linecap="round" stroke-linejoin="round" stroke-width="2"/></g><path d="M679.219,1658.211a15.562,15.562,0,0,1-11.808-3.329,15.563,15.563,0,0,1-11.808,3.329s-2.274,19.3,11.808,23.459C681.493,1677.508,679.219,1658.211,679.219,1658.211Z" transform="translate(-630.903 -1635.932)" fill="none" stroke="#ff8146" stroke-linecap="round" stroke-linejoin="round" stroke-width="2"/><path d="M612.388,1615.348l-1.519,1.39a3.269,3.269,0,0,1-2.21.857l-4.066-.006-5.4.006a3.269,3.269,0,0,1-2.21-.857l-1.519-1.39" transform="translate(-583.906 -1604.969)" fill="none" stroke="#ff8146" stroke-linecap="round" stroke-linejoin="round" stroke-width="2"/><path d="M671.7,1645.716v-1.09a2.208,2.208,0,0,1,1.889-2.184l4.307-.593" transform="translate(-643.612 -1625.725)" fill="none" stroke="#ff8146" stroke-linecap="round" stroke-linejoin="round" stroke-width="2"/><path d="M566.916,1641.849l4.307.593a2.207,2.207,0,0,1,1.889,2.184v1.09h-6.2" transform="translate(-561.548 -1625.725)" fill="none" stroke="#ff8146" stroke-linecap="round" stroke-linejoin="round" stroke-width="2"/><line y2="10.271" transform="translate(2.029 13.495)" fill="none" stroke="#ff8146" stroke-linecap="round" stroke-linejoin="round" stroke-width="2"/><path d="M544.182,1580.964l-1.71-1.858a1,1,0,0,1-.319-.731v-2.026a1,1,0,0,1,1-1h3.9l3.378-6.477a3.544,3.544,0,0,1,2.824-1.4H570.7a3.544,3.544,0,0,1,2.824,1.4l3.378,6.477h3.9a1,1,0,0,1,1,1v2.026a1,1,0,0,1-.319.731l-1.71,1.858v3.483" transform="translate(-542.153 -1567.469)" fill="none" stroke="#ff8146" stroke-linecap="round" stroke-linejoin="round" stroke-width="2"/><path d="M557.784,1677.1v.382a3.135,3.135,0,0,1-3.135,3.135h0a3.135,3.135,0,0,1-3.135-3.135v-.382" transform="translate(-549.484 -1653.332)" fill="none" stroke="#ff8146" stroke-linecap="round" stroke-linejoin="round" stroke-width="2"/><path d="M583.84,1677.1H566.916" transform="translate(-561.548 -1653.331)" fill="none" stroke="#ff8146" stroke-linecap="round" stroke-linejoin="round" stroke-width="2"/><line x2="4.937" transform="translate(17.355 19.992)" fill="none" stroke="#ff8146" stroke-linecap="round" stroke-linejoin="round" stroke-width="2"/></g></svg>