<svg xmlns="http://www.w3.org/2000/svg" width="45.906" height="47.849" viewBox="0 0 45.906 47.849"><g transform="translate(1 1.105)"><g transform="translate(16.279)"><path d="M2688.177,1239.9l2.183-.172a1.527,1.527,0,0,0,1.4-1.641l-.189-2.41a1.527,1.527,0,0,0-1.642-1.4l-2.176.171a10.358,10.358,0,0,0-3.009-4.372l.942-1.974a1.527,1.527,0,0,0-.72-2.036l-2.181-1.041a1.527,1.527,0,0,0-2.035.72l-.942,1.974a10.354,10.354,0,0,0-5.291.411l-1.235-1.8a1.527,1.527,0,0,0-2.123-.394l-1.992,1.368a1.527,1.527,0,0,0-.394,2.123l1.24,1.8a10.467,10.467,0,0,0-2.284,4.786l-2.182.171a1.527,1.527,0,0,0-1.4,1.642l.19,2.409a1.527,1.527,0,0,0,1.642,1.4l2.176-.171a10.353,10.353,0,0,0,3.009,4.372l-.942,1.974a1.527,1.527,0,0,0,.72,2.035l2.182,1.041a1.526,1.526,0,0,0,2.035-.72l.943-1.974a10.351,10.351,0,0,0,5.29-.411l1.236,1.8a1.526,1.526,0,0,0,2.122.394l1.993-1.369a1.528,1.528,0,0,0,.393-2.123l-1.24-1.8A10.444,10.444,0,0,0,2688.177,1239.9Z" transform="translate(-2664.141 -1224.87)" fill="none" stroke="#ff8146" stroke-linecap="round" stroke-linejoin="round" stroke-width="2"/><circle cx="3.942" cy="3.942" r="3.942" transform="translate(8.662 10.951) rotate(-22.5)" fill="none" stroke="#ff8146" stroke-linecap="round" stroke-linejoin="round" stroke-width="2"/></g><g transform="translate(15.898 27.486)"><path d="M2677.392,1368.433l.964-1.129a1.035,1.035,0,0,0-.115-1.459L2677,1364.78a1.035,1.035,0,0,0-1.46.115l-.961,1.125a7.026,7.026,0,0,0-3.539-.653l-.495-1.4a1.036,1.036,0,0,0-1.321-.631l-1.545.547a1.035,1.035,0,0,0-.63,1.321l.495,1.4a7.02,7.02,0,0,0-2.34,2.734l-1.454-.27a1.036,1.036,0,0,0-1.207.829l-.3,1.611a1.034,1.034,0,0,0,.829,1.207l1.46.271a7.1,7.1,0,0,0,1.2,3.389l-.964,1.129a1.035,1.035,0,0,0,.115,1.459l1.246,1.064a1.036,1.036,0,0,0,1.46-.115l.96-1.125a7.022,7.022,0,0,0,3.539.654l.495,1.4a1.035,1.035,0,0,0,1.322.63l1.545-.547a1.035,1.035,0,0,0,.63-1.321l-.495-1.4a7.023,7.023,0,0,0,2.339-2.734l1.455.27a1.035,1.035,0,0,0,1.207-.829l.3-1.612a1.036,1.036,0,0,0-.83-1.207l-1.459-.271A7.089,7.089,0,0,0,2677.392,1368.433Z" transform="translate(-2662.222 -1363.278)" fill="none" stroke="#ff8146" stroke-linecap="round" stroke-linejoin="round" stroke-width="2"/><path d="M2700.346,1396.555a2.673,2.673,0,1,0,0,3.78A2.672,2.672,0,0,0,2700.346,1396.555Z" transform="translate(-2689.118 -1389.319)" fill="none" stroke="#ff8146" stroke-linecap="round" stroke-linejoin="round" stroke-width="2"/></g><g transform="translate(0 7.855)"><g transform="translate(0 0)"><path d="M2643.228,1314.357l-4.337,0a2.994,2.994,0,0,1-2.024-.785l-1.391-1.273" transform="translate(-2624.89 -1302.796)" fill="none" stroke="#ff8146" stroke-linecap="round" stroke-linejoin="round" stroke-width="2"/><path d="M2606.93,1338.8l3.946.543a2.023,2.023,0,0,1,1.731,2v1h-5.677" transform="translate(-2602.012 -1324.033)" fill="none" stroke="#ff8146" stroke-linecap="round" stroke-linejoin="round" stroke-width="2"/><line y2="9.409" transform="translate(1.859 12.362)" fill="none" stroke="#ff8146" stroke-linecap="round" stroke-linejoin="round" stroke-width="2"/><path d="M2584.026,1276.786l-1.567-1.7a.915.915,0,0,1-.292-.67v-1.856a.915.915,0,0,1,.915-.915h3.575l3.094-5.933a3.245,3.245,0,0,1,2.587-1.286h8.415" transform="translate(-2582.167 -1264.424)" fill="none" stroke="#ff8146" stroke-linecap="round" stroke-linejoin="round" stroke-width="2"/><path d="M2597.271,1374.052v.35a2.872,2.872,0,0,1-2.872,2.872h0a2.872,2.872,0,0,1-2.872-2.872v-.35" transform="translate(-2589.668 -1352.281)" fill="none" stroke="#ff8146" stroke-linecap="round" stroke-linejoin="round" stroke-width="2"/><line x1="13.421" transform="translate(4.918 21.771)" fill="none" stroke="#ff8146" stroke-linecap="round" stroke-linejoin="round" stroke-width="2"/><line x2="2.262" transform="translate(15.898 18.314)" fill="none" stroke="#ff8146" stroke-linecap="round" stroke-linejoin="round" stroke-width="2"/><line x2="6.326" transform="translate(7.756 7.219)" fill="none" stroke="#ff8146" stroke-linecap="round" stroke-linejoin="round" stroke-width="2"/></g></g></g></svg>