<svg xmlns="http://www.w3.org/2000/svg" width="275.618" height="59.818" viewBox="0 0 275.618 59.818"><g transform="translate(-218.311 -75.802)"><g transform="translate(292.935 94.802)"><g transform="translate(0 0.236)"><path d="M121.68,587.168h5.245a4.526,4.526,0,0,1,5.245,5.181v1.383q0,3.508-2.317,4.441v.064a2.764,2.764,0,0,1,1.818,1.577A7.935,7.935,0,0,1,132.2,603v3.958a15.116,15.116,0,0,0,.065,1.56,3.9,3.9,0,0,0,.322,1.175h-3.6a5.152,5.152,0,0,1-.257-1.03,15.343,15.343,0,0,1-.065-1.738v-4.119a3.5,3.5,0,0,0-.5-2.156,2.11,2.11,0,0,0-1.721-.612H125.22v9.653h-3.54Zm4.827,9.653a2.122,2.122,0,0,0,1.593-.547,2.582,2.582,0,0,0,.531-1.834V592.7a2.857,2.857,0,0,0-.434-1.769,1.642,1.642,0,0,0-1.368-.547H125.22v6.435Z" transform="translate(-121.68 -587.168)" fill="#272b76"/><path d="M146.122,587.168h9.653v3.218h-6.114v5.953h4.859v3.218h-4.859v6.919h6.114v3.217h-9.653Z" transform="translate(-132.51 -587.168)" fill="#272b76"/><path d="M168.252,587.168H173.3l2.253,16.121h.065l2.253-16.121h5.052v22.525h-3.346V592.638h-.064l-2.575,17.055H173.98l-2.575-17.055h-.064v17.055h-3.089Z" transform="translate(-142.316 -587.168)" fill="#272b76"/><path d="M202.486,587.168h4.795l3.668,22.525h-3.54l-.644-4.473v.065h-4.022l-.643,4.408h-3.282Zm3.862,15.06-1.577-11.134h-.065l-1.544,11.134Z" transform="translate(-155.86 -587.168)" fill="#272b76"/><path d="M224.819,587.168h5.245a4.525,4.525,0,0,1,5.245,5.181v1.383q0,3.508-2.317,4.441v.064a2.765,2.765,0,0,1,1.818,1.577,7.944,7.944,0,0,1,.531,3.185v3.958a14.955,14.955,0,0,0,.065,1.56,3.876,3.876,0,0,0,.321,1.175h-3.6a5.156,5.156,0,0,1-.258-1.03,15.511,15.511,0,0,1-.064-1.738v-4.119a3.5,3.5,0,0,0-.5-2.156,2.11,2.11,0,0,0-1.721-.612h-1.223v9.653h-3.54Zm4.827,9.653a2.122,2.122,0,0,0,1.593-.547,2.584,2.584,0,0,0,.531-1.834V592.7a2.858,2.858,0,0,0-.434-1.769,1.641,1.641,0,0,0-1.368-.547h-1.609v6.435Z" transform="translate(-167.381 -587.168)" fill="#272b76"/><path d="M249.261,587.168h3.54v9.493l4.5-9.493h3.54l-4.215,8.27,4.28,14.255h-3.7l-2.993-10.04-1.416,2.864v7.176h-3.54Z" transform="translate(-178.211 -587.168)" fill="#272b76"/><path d="M276.33,587.168h4.795l3.668,22.525h-3.54l-.644-4.473v.065h-4.023l-.643,4.408h-3.282Zm3.862,15.06-1.577-11.134h-.065l-1.545,11.134Z" transform="translate(-188.58 -587.168)" fill="#272b76"/><path d="M298.663,587.168H304a4.525,4.525,0,0,1,5.245,5.181v.9a6.189,6.189,0,0,1-.562,2.832,3.3,3.3,0,0,1-1.722,1.577v.064q2.638.9,2.639,4.7v1.931a4.8,4.8,0,0,1-5.374,5.341h-5.567Zm4.924,9.171a2.123,2.123,0,0,0,1.593-.547,2.585,2.585,0,0,0,.531-1.834V592.7a2.857,2.857,0,0,0-.434-1.769,1.641,1.641,0,0,0-1.368-.547H302.2v5.953Zm.644,10.137a1.773,1.773,0,0,0,1.383-.5,2.573,2.573,0,0,0,.45-1.721v-1.963a3.257,3.257,0,0,0-.531-2.14,2.248,2.248,0,0,0-1.753-.6H302.2v6.919Z" transform="translate(-200.101 -587.168)" fill="#272b76"/><path d="M323.162,587.168h3.54v19.308h5.824v3.217h-9.364Z" transform="translate(-210.956 -587.168)" fill="#272b76"/><path d="M344.194,587.168h9.654v3.218h-6.114v5.953h4.859v3.218h-4.859v6.919h6.114v3.217h-9.654Z" transform="translate(-220.276 -587.168)" fill="#272b76"/></g><path d="M373.388,586.765h6.967V609.74h-6.967Z" transform="translate(-233.212 -586.754)" fill="#ff6f00"/><g transform="translate(152.529)"><path d="M405.7,592.428v2.027h-2.381V592.3c0-2.027-.8-3.25-2.639-3.25-1.8,0-2.638,1.223-2.638,3.25V604.2c0,2.028.836,3.25,2.638,3.25,1.834,0,2.639-1.222,2.639-3.25v-2.928H405.7v2.8c0,3.411-1.609,5.664-5.083,5.664-3.444,0-5.052-2.253-5.052-5.664V592.428c0-3.411,1.608-5.663,5.052-5.663C404.1,586.765,405.7,589.017,405.7,592.428Z" transform="translate(-395.569 -586.754)" fill="#272b76"/><path d="M419.915,605.176l-.865,4.538-2.317,0,4.293-22.528,3.636,0,4.33,22.521-2.51,0-.873-4.537Zm.32-2.156,5.02,0-2.553-13Z" transform="translate(-404.947 -586.94)" fill="#272b76"/><path d="M447.258,587.168c3.54,0,5.022,1.8,5.024,5.144l0,1.834c0,2.478-.865,4.022-2.8,4.635,2.06.61,2.833,2.282,2.835,4.7l0,3.507a5.64,5.64,0,0,0,.453,2.7l-2.542,0a5.9,5.9,0,0,1-.42-2.735l0-3.539c0-2.542-1.193-3.345-3.285-3.344l-1.77,0,.008,9.621-2.51,0-.018-22.524Zm-.634,10.619c1.995,0,3.185-.646,3.183-3.092l0-2.156c0-2.027-.742-3.089-2.609-3.087l-2.446,0,.007,8.335Z" transform="translate(-416.248 -586.933)" fill="#272b76"/><path d="M474.489,592.372v.612l-2.381,0v-.741c0-2.027-.775-3.217-2.577-3.216s-2.573,1.193-2.572,3.188c0,5.052,7.567,5.529,7.572,11.868,0,3.41-1.636,5.632-5.079,5.635s-5.054-2.216-5.057-5.626v-1.287l2.349,0v1.416c0,2.027.839,3.217,2.641,3.216s2.637-1.193,2.636-3.22c0-5.02-7.534-5.5-7.539-11.835,0-3.475,1.6-5.633,4.983-5.635C472.875,586.742,474.486,588.962,474.489,592.372Z" transform="translate(-426.065 -586.745)" fill="#272b76"/></g></g></g><g transform="translate(-290.938 -12.106)"><path d="M113.79,399.37l28.1,29.08h-6.787A22.651,22.651,0,0,1,116,418.118C113.1,413.581,111.453,407.417,113.79,399.37Z" transform="translate(178.259 -356.527)" fill="#272b76"/><path d="M165.992,217.5a15.016,15.016,0,0,0-9.8-3.634H119.384l12.636,12.389h21.214a6.784,6.784,0,0,1,4.122,1.35c2.408,1.851,5.45,5.615,1.6,11.356a6.478,6.478,0,0,1-5.4,2.69h-5.836l16.273,15.956C181.5,236.26,172.74,223.312,165.992,217.5Z" transform="translate(172.665 -201.764)" fill="#272b76"/><path d="M121.624,213.87l57.945,59.818H153.955L119.384,238.3V213.87Z" transform="translate(172.665 -201.765)" fill="#ff6f00"/></g></svg>